# xmcd
#
# Track frame offsets:
#	150
#	21225
#	32430
#	53362
#	72445
#	103915
#	123480
#	138885
#	151640
#	174772
#
# Disc length: 2659 seconds
#
# Revision: 2
# Processed by: cddbd v1.4PL0 Copyright (c) Steve Scherf et al.
# Submitted via: audiograbber 1.81.03
#
DISCID=730a610a
DTITLE=Various Artist - Blues Guitar Duels (ED CD 7049)
DYEAR=1997
DGENRE=Blues
TTITLE0=Buddy Guy - Girl You're Nice And Clean
TTITLE1=Hubert Sumlin's Blus Party Ft Ronnie Earl - West Side Soul
TTITLE2=Smokin Joe Kubek Band Ft Bnois  King - Corn Palace
TTITLE3=Mike Morgan and Jim Suhler - You're Fine
TTITLE4=Philliip Walker and Otis Grand - She's Gone
TTITLE5=Ronnie Earl and Duke Robillard - Backstroke
TTITLE6=Grady Gaines and Clarence Hollimon - Full Gain
TTITLE7=Joe Coronado and The Texas Beat With Mark Pollock and Ray Jimenez - The Was
TTITLE7=p
TTITLE8=Guitar Shorty and Otis Grand - Kick Out
TTITLE9=Hubert Sumlin and Richard Studholme - You Got To Help Me
EXTD=
EXTT0=
EXTT1=
EXTT2=
EXTT3=
EXTT4=
EXTT5=
EXTT6=
EXTT7=
EXTT8=
EXTT9=
PLAYORDER=
